<mxfile host="app.diagrams.net" agent="Mozilla/5.0 (Windows NT 10.0; Win64; x64) AppleWebKit/537.36 (KHTML, like Gecko) Chrome/133.0.0.0 Safari/537.36 Edg/133.0.0.0" version="26.0.16">
  <diagram name="第 1 页" id="KWmwhhMcyVEOXyKgIDqz">
    <mxGraphModel dx="868" dy="478" grid="0" gridSize="10" guides="1" tooltips="1" connect="1" arrows="1" fold="1" page="0" pageScale="1" pageWidth="827" pageHeight="1169" math="0" shadow="0">
      <root>
        <mxCell id="0" />
        <mxCell id="1" parent="0" />
        <mxCell id="LHpP83h3TlTLteyzTE3w-1" value="第三方客户端" style="rounded=0;whiteSpace=wrap;html=1;" vertex="1" parent="1">
          <mxGeometry x="30" y="98" width="92" height="42" as="geometry" />
        </mxCell>
        <mxCell id="LHpP83h3TlTLteyzTE3w-2" value="" style="endArrow=none;dashed=1;html=1;dashPattern=1 3;strokeWidth=2;rounded=0;" edge="1" parent="1">
          <mxGeometry width="50" height="50" relative="1" as="geometry">
            <mxPoint x="77" y="533" as="sourcePoint" />
            <mxPoint x="75" y="137" as="targetPoint" />
          </mxGeometry>
        </mxCell>
        <mxCell id="LHpP83h3TlTLteyzTE3w-3" value="" style="rounded=1;whiteSpace=wrap;html=1;" vertex="1" parent="1">
          <mxGeometry x="69" y="151" width="16" height="352" as="geometry" />
        </mxCell>
        <mxCell id="LHpP83h3TlTLteyzTE3w-4" value="服务都" style="rounded=0;whiteSpace=wrap;html=1;" vertex="1" parent="1">
          <mxGeometry x="242" y="98" width="92" height="42" as="geometry" />
        </mxCell>
        <mxCell id="LHpP83h3TlTLteyzTE3w-5" value="数据库" style="rounded=0;whiteSpace=wrap;html=1;" vertex="1" parent="1">
          <mxGeometry x="458" y="96" width="92" height="42" as="geometry" />
        </mxCell>
        <mxCell id="LHpP83h3TlTLteyzTE3w-6" value="" style="endArrow=none;dashed=1;html=1;dashPattern=1 3;strokeWidth=2;rounded=0;" edge="1" parent="1">
          <mxGeometry width="50" height="50" relative="1" as="geometry">
            <mxPoint x="289" y="536" as="sourcePoint" />
            <mxPoint x="287" y="140" as="targetPoint" />
          </mxGeometry>
        </mxCell>
        <mxCell id="LHpP83h3TlTLteyzTE3w-7" value="" style="rounded=1;whiteSpace=wrap;html=1;" vertex="1" parent="1">
          <mxGeometry x="281" y="154" width="14" height="352" as="geometry" />
        </mxCell>
        <mxCell id="LHpP83h3TlTLteyzTE3w-8" value="" style="endArrow=none;dashed=1;html=1;dashPattern=1 3;strokeWidth=2;rounded=0;" edge="1" parent="1">
          <mxGeometry width="50" height="50" relative="1" as="geometry">
            <mxPoint x="507" y="534" as="sourcePoint" />
            <mxPoint x="505" y="138" as="targetPoint" />
          </mxGeometry>
        </mxCell>
        <mxCell id="LHpP83h3TlTLteyzTE3w-9" value="" style="rounded=1;whiteSpace=wrap;html=1;" vertex="1" parent="1">
          <mxGeometry x="499" y="152" width="14" height="352" as="geometry" />
        </mxCell>
        <mxCell id="LHpP83h3TlTLteyzTE3w-10" value="" style="endArrow=classic;html=1;rounded=0;exitX=1.013;exitY=0.054;exitDx=0;exitDy=0;exitPerimeter=0;" edge="1" parent="1" source="LHpP83h3TlTLteyzTE3w-3">
          <mxGeometry width="50" height="50" relative="1" as="geometry">
            <mxPoint x="344" y="344" as="sourcePoint" />
            <mxPoint x="280" y="170" as="targetPoint" />
            <Array as="points">
              <mxPoint x="193" y="168" />
            </Array>
          </mxGeometry>
        </mxCell>
        <mxCell id="LHpP83h3TlTLteyzTE3w-11" value="获取物品数据并携带ApiToken" style="edgeLabel;html=1;align=center;verticalAlign=middle;resizable=0;points=[];" vertex="1" connectable="0" parent="LHpP83h3TlTLteyzTE3w-10">
          <mxGeometry x="-0.2074" y="2" relative="1" as="geometry">
            <mxPoint x="15" as="offset" />
          </mxGeometry>
        </mxCell>
        <mxCell id="LHpP83h3TlTLteyzTE3w-12" value="" style="endArrow=classic;html=1;rounded=0;exitX=0.986;exitY=0.077;exitDx=0;exitDy=0;exitPerimeter=0;entryX=0.214;entryY=0.081;entryDx=0;entryDy=0;entryPerimeter=0;" edge="1" parent="1">
          <mxGeometry width="50" height="50" relative="1" as="geometry">
            <mxPoint x="297.00399999999996" y="221.59399999999994" as="sourcePoint" />
            <mxPoint x="504.19599999999986" y="221.00199999999995" as="targetPoint" />
          </mxGeometry>
        </mxCell>
        <mxCell id="LHpP83h3TlTLteyzTE3w-13" value="获取ApiToken数据" style="edgeLabel;html=1;align=center;verticalAlign=middle;resizable=0;points=[];" vertex="1" connectable="0" parent="LHpP83h3TlTLteyzTE3w-12">
          <mxGeometry x="-0.2221" y="-2" relative="1" as="geometry">
            <mxPoint x="19" y="5" as="offset" />
          </mxGeometry>
        </mxCell>
        <mxCell id="LHpP83h3TlTLteyzTE3w-14" value="" style="endArrow=classic;html=1;rounded=0;dashed=1;entryX=0.814;entryY=0.164;entryDx=0;entryDy=0;entryPerimeter=0;exitX=0.214;exitY=0.172;exitDx=0;exitDy=0;exitPerimeter=0;" edge="1" parent="1">
          <mxGeometry width="50" height="50" relative="1" as="geometry">
            <mxPoint x="504.5959999999999" y="263.81399999999996" as="sourcePoint" />
            <mxPoint x="294.9960000000001" y="262.99799999999993" as="targetPoint" />
          </mxGeometry>
        </mxCell>
        <mxCell id="LHpP83h3TlTLteyzTE3w-15" value="获取成功" style="edgeLabel;html=1;align=center;verticalAlign=middle;resizable=0;points=[];" vertex="1" connectable="0" parent="LHpP83h3TlTLteyzTE3w-14">
          <mxGeometry x="0.1315" y="4" relative="1" as="geometry">
            <mxPoint x="3" y="-15" as="offset" />
          </mxGeometry>
        </mxCell>
        <mxCell id="LHpP83h3TlTLteyzTE3w-16" style="edgeStyle=orthogonalEdgeStyle;rounded=0;orthogonalLoop=1;jettySize=auto;html=1;entryX=1.043;entryY=0.386;entryDx=0;entryDy=0;entryPerimeter=0;exitX=0.986;exitY=0.57;exitDx=0;exitDy=0;exitPerimeter=0;" edge="1" parent="1">
          <mxGeometry relative="1" as="geometry">
            <Array as="points">
              <mxPoint x="295" y="330" />
              <mxPoint x="379" y="330" />
              <mxPoint x="379" y="292" />
            </Array>
            <mxPoint x="295.00399999999996" y="356.76999999999987" as="sourcePoint" />
            <mxPoint x="295.8020000000001" y="292.00199999999995" as="targetPoint" />
          </mxGeometry>
        </mxCell>
        <mxCell id="LHpP83h3TlTLteyzTE3w-17" value="IP白名单认证" style="text;html=1;align=center;verticalAlign=middle;resizable=0;points=[];autosize=1;strokeColor=none;fillColor=none;" vertex="1" parent="1">
          <mxGeometry x="320" y="298" width="89" height="26" as="geometry" />
        </mxCell>
        <mxCell id="LHpP83h3TlTLteyzTE3w-18" value="" style="endArrow=classic;html=1;rounded=0;entryX=0.763;entryY=0.631;entryDx=0;entryDy=0;entryPerimeter=0;dashed=1;exitX=0.059;exitY=0.628;exitDx=0;exitDy=0;exitPerimeter=0;" edge="1" parent="1">
          <mxGeometry width="50" height="50" relative="1" as="geometry">
            <mxPoint x="280.99600000000004" y="432.946" as="sourcePoint" />
            <mxPoint x="80.37800000000009" y="431.00199999999995" as="targetPoint" />
          </mxGeometry>
        </mxCell>
        <mxCell id="LHpP83h3TlTLteyzTE3w-19" value="返回物品信息" style="text;html=1;align=center;verticalAlign=middle;resizable=0;points=[];autosize=1;strokeColor=none;fillColor=none;" vertex="1" parent="1">
          <mxGeometry x="107" y="402" width="90" height="26" as="geometry" />
        </mxCell>
        <mxCell id="LHpP83h3TlTLteyzTE3w-23" style="edgeStyle=orthogonalEdgeStyle;rounded=0;orthogonalLoop=1;jettySize=auto;html=1;entryX=1.043;entryY=0.386;entryDx=0;entryDy=0;entryPerimeter=0;exitX=0.986;exitY=0.57;exitDx=0;exitDy=0;exitPerimeter=0;" edge="1" parent="1">
          <mxGeometry relative="1" as="geometry">
            <Array as="points">
              <mxPoint x="295" y="210" />
              <mxPoint x="379" y="210" />
              <mxPoint x="379" y="178" />
            </Array>
            <mxPoint x="295.00399999999996" y="242.76999999999987" as="sourcePoint" />
            <mxPoint x="295.8020000000001" y="178.00199999999995" as="targetPoint" />
          </mxGeometry>
        </mxCell>
        <mxCell id="LHpP83h3TlTLteyzTE3w-24" value="ApiToken认证" style="text;html=1;align=center;verticalAlign=middle;resizable=0;points=[];autosize=1;strokeColor=none;fillColor=none;" vertex="1" parent="1">
          <mxGeometry x="334" y="181" width="91" height="26" as="geometry" />
        </mxCell>
        <mxCell id="LHpP83h3TlTLteyzTE3w-26" value="" style="endArrow=classic;html=1;rounded=0;exitX=0.986;exitY=0.077;exitDx=0;exitDy=0;exitPerimeter=0;entryX=0.172;entryY=0.571;entryDx=0;entryDy=0;entryPerimeter=0;" edge="1" parent="1" target="LHpP83h3TlTLteyzTE3w-9">
          <mxGeometry width="50" height="50" relative="1" as="geometry">
            <mxPoint x="295.00399999999996" y="351.59399999999994" as="sourcePoint" />
            <mxPoint x="502.1959999999999" y="351.00199999999995" as="targetPoint" />
          </mxGeometry>
        </mxCell>
        <mxCell id="LHpP83h3TlTLteyzTE3w-27" value="获取物品数据" style="edgeLabel;html=1;align=center;verticalAlign=middle;resizable=0;points=[];" vertex="1" connectable="0" parent="LHpP83h3TlTLteyzTE3w-26">
          <mxGeometry x="-0.2221" y="-2" relative="1" as="geometry">
            <mxPoint x="19" y="5" as="offset" />
          </mxGeometry>
        </mxCell>
        <mxCell id="LHpP83h3TlTLteyzTE3w-30" value="" style="endArrow=classic;html=1;rounded=0;dashed=1;entryX=0.814;entryY=0.164;entryDx=0;entryDy=0;entryPerimeter=0;exitX=0.214;exitY=0.172;exitDx=0;exitDy=0;exitPerimeter=0;" edge="1" parent="1">
          <mxGeometry width="50" height="50" relative="1" as="geometry">
            <mxPoint x="504.5959999999999" y="395.814" as="sourcePoint" />
            <mxPoint x="294.9960000000001" y="394.998" as="targetPoint" />
          </mxGeometry>
        </mxCell>
        <mxCell id="LHpP83h3TlTLteyzTE3w-31" value="获取成功" style="edgeLabel;html=1;align=center;verticalAlign=middle;resizable=0;points=[];" vertex="1" connectable="0" parent="LHpP83h3TlTLteyzTE3w-30">
          <mxGeometry x="0.1315" y="4" relative="1" as="geometry">
            <mxPoint x="3" y="-15" as="offset" />
          </mxGeometry>
        </mxCell>
        <mxCell id="LHpP83h3TlTLteyzTE3w-33" value="" style="endArrow=classic;html=1;rounded=0;exitX=0.986;exitY=0.077;exitDx=0;exitDy=0;exitPerimeter=0;entryX=0.214;entryY=0.081;entryDx=0;entryDy=0;entryPerimeter=0;" edge="1" parent="1">
          <mxGeometry width="50" height="50" relative="1" as="geometry">
            <mxPoint x="295.00399999999996" y="453.59399999999994" as="sourcePoint" />
            <mxPoint x="502.1959999999999" y="453.00199999999995" as="targetPoint" />
          </mxGeometry>
        </mxCell>
        <mxCell id="LHpP83h3TlTLteyzTE3w-34" value="记录Api访问日志" style="edgeLabel;html=1;align=center;verticalAlign=middle;resizable=0;points=[];" vertex="1" connectable="0" parent="LHpP83h3TlTLteyzTE3w-33">
          <mxGeometry x="-0.2221" y="-2" relative="1" as="geometry">
            <mxPoint x="19" y="5" as="offset" />
          </mxGeometry>
        </mxCell>
        <mxCell id="LHpP83h3TlTLteyzTE3w-35" value="" style="endArrow=classic;html=1;rounded=0;dashed=1;entryX=0.814;entryY=0.164;entryDx=0;entryDy=0;entryPerimeter=0;exitX=0.214;exitY=0.172;exitDx=0;exitDy=0;exitPerimeter=0;" edge="1" parent="1">
          <mxGeometry width="50" height="50" relative="1" as="geometry">
            <mxPoint x="504.5959999999999" y="491.814" as="sourcePoint" />
            <mxPoint x="294.9960000000001" y="490.998" as="targetPoint" />
          </mxGeometry>
        </mxCell>
        <mxCell id="LHpP83h3TlTLteyzTE3w-36" value="数据记录成功" style="edgeLabel;html=1;align=center;verticalAlign=middle;resizable=0;points=[];" vertex="1" connectable="0" parent="LHpP83h3TlTLteyzTE3w-35">
          <mxGeometry x="0.1315" y="4" relative="1" as="geometry">
            <mxPoint x="3" y="-15" as="offset" />
          </mxGeometry>
        </mxCell>
      </root>
    </mxGraphModel>
  </diagram>
</mxfile>
